<svg width="86" height="76" viewBox="0 0 86 76" fill="none" xmlns="http://www.w3.org/2000/svg">
<g clip-path="url(#clip0_84_394)">
<path d="M85.871 20.3126L82.2877 11.3543C82.1992 11.1329 82.0674 10.9314 81.9 10.7615C81.7327 10.5917 81.5331 10.457 81.313 10.3653L70.563 5.88614C70.2906 5.77288 69.9946 5.7286 69.701 5.75725C69.4074 5.7859 69.1255 5.88658 68.8802 6.05035C68.6348 6.21413 68.4338 6.43594 68.2948 6.69609C68.1558 6.95624 68.0831 7.24668 68.0833 7.54164V14.9735L55.6922 30.4499C54.5145 31.9249 52.9002 32.9894 51.0805 33.4909C49.2608 33.9923 47.3291 33.9049 45.5621 33.2413L44.2291 32.7396C43.9855 32.647 43.7246 32.6087 43.4647 32.6272C43.2048 32.6458 42.952 32.7209 42.7241 32.8471L35.6936 36.753C35.4242 36.9018 35.1977 37.1176 35.036 37.3794C34.8742 37.6412 34.7826 37.9403 34.77 38.2478C34.7574 38.5553 34.8242 38.8608 34.964 39.135C35.1038 39.4092 35.3119 39.6427 35.5682 39.8131C35.9784 40.0891 36.306 40.4712 36.5163 40.9186C36.7266 41.366 36.8117 41.8621 36.7624 42.354C36.7131 42.846 36.5314 43.3153 36.2366 43.7122C35.9417 44.109 35.5448 44.4185 35.088 44.6076L11.008 54.5335L3.06017 46.5856C2.80959 46.3344 2.49006 46.1633 2.14209 46.0939C1.79411 46.0245 1.43337 46.06 1.10559 46.1958C0.777813 46.3317 0.497758 46.5618 0.30093 46.8571C0.104103 47.1523 -0.000631973 47.4993 2.869e-06 47.8541V57.8373C0.000226571 58.0853 0.051937 58.3306 0.151861 58.5576C0.251785 58.7845 0.397745 58.9883 0.580503 59.156L7.96217 65.9392C10.8559 68.5837 14.6344 70.0498 18.5545 70.0493C19.5602 70.0488 20.5635 69.9504 21.5502 69.7555L73.8059 59.4641C74.1269 59.4001 74.4241 59.2493 74.6654 59.0282C74.9068 58.8071 75.0829 58.5241 75.1747 58.21L85.9247 21.4808C86.0403 21.0966 86.0213 20.6846 85.871 20.3126ZM15.5087 66.0503L13.0828 57.5578L36.4533 47.9186C37.2972 47.5694 38.0555 47.0416 38.676 46.3714C39.2965 45.7012 39.7645 44.9046 40.0478 44.0363C40.3311 43.168 40.423 42.2487 40.3171 41.3415C40.2113 40.4344 39.9102 39.5609 39.4346 38.7811L43.7453 36.3875L44.3008 36.5917C46.7748 37.5274 49.4821 37.6533 52.0323 36.9514C54.5825 36.2494 56.844 34.7558 58.4907 32.6859L71.0145 17.0482L82.259 21.2658L72.0465 56.1603L20.855 66.2438C19.081 66.5818 17.2536 66.5157 15.5087 66.0503ZM3.58334 52.1792L9.31667 57.9126C9.36325 57.9591 9.43492 57.9627 9.48509 58.0021L11.1549 63.8537C10.9041 63.6566 10.621 63.5169 10.3845 63.3019L3.58334 57.049V52.1792ZM79.2418 13.3861L80.6178 16.8261L71.6667 13.4685V10.2291L79.2418 13.3861Z" fill="white"/>
</g>
<defs>
<clipPath id="clip0_84_394">
<rect width="86" height="86" fill="white" transform="translate(0 -5)"/>
</clipPath>
</defs>
</svg>
