<?xml version="1.0" encoding="UTF-8" standalone="no"?>
<!-- Created with Inkscape (http://www.inkscape.org/) -->

<svg
   width="210mm"
   height="297mm"
   viewBox="0 0 210 297"
   version="1.1"
   id="svg5"
   xml:space="preserve"
   inkscape:version="1.2.2 (732a01da63, 2022-12-09)"
   sodipodi:docname="dron_logo.svg"
   xmlns:inkscape="http://www.inkscape.org/namespaces/inkscape"
   xmlns:sodipodi="http://sodipodi.sourceforge.net/DTD/sodipodi-0.dtd"
   xmlns="http://www.w3.org/2000/svg"
   xmlns:svg="http://www.w3.org/2000/svg"><sodipodi:namedview
     id="namedview7"
     pagecolor="#ffffff"
     bordercolor="#000000"
     borderopacity="0.25"
     inkscape:showpageshadow="2"
     inkscape:pageopacity="0.0"
     inkscape:pagecheckerboard="0"
     inkscape:deskcolor="#d1d1d1"
     inkscape:document-units="mm"
     showgrid="false"
     inkscape:zoom="0.38395764"
     inkscape:cx="432.33936"
     inkscape:cy="557.35315"
     inkscape:window-width="1920"
     inkscape:window-height="1017"
     inkscape:window-x="2552"
     inkscape:window-y="143"
     inkscape:window-maximized="1"
     inkscape:current-layer="layer1" /><defs
     id="defs2" /><g
     inkscape:label="Слой 1"
     inkscape:groupmode="layer"
     id="layer1"
     transform="matrix(2.4418605,0,0,2.4418606,-0.33858015,-158.24744)"><g
       id="g144"
       transform="matrix(3.5833332,0,0,3.5833333,0.13865832,64.806088)"><path
         d="m 23.964,7.064 -1,-2.5 A 0.5,0.5 0 0 0 22.692,4.288 l -3,-1.25 A 0.5,0.5 0 0 0 19,3.5 v 2.074 l -3.458,4.319 a 2.495,2.495 0 0 1 -2.827,0.779 l -0.372,-0.14 a 0.5,0.5 0 0 0 -0.42,0.03 l -1.962,1.09 a 0.5,0.5 0 0 0 -0.035,0.854 0.763,0.763 0 0 1 -0.134,1.338 l -6.72,2.77 -2.218,-2.218 A 0.5,0.5 0 0 0 0,14.75 v 2.786 a 0.5,0.5 0 0 0 0.162,0.368 l 2.06,1.893 a 4.381,4.381 0 0 0 2.956,1.147 4.323,4.323 0 0 0 0.836,-0.082 L 20.597,17.99 a 0.5,0.5 0 0 0 0.382,-0.35 l 3,-10.25 A 0.492,0.492 0 0 0 23.964,7.064 Z m -19.636,12.764 -0.677,-2.37 6.522,-2.69 a 1.765,1.765 0 0 0 0.832,-2.55 l 1.203,-0.668 0.155,0.057 a 3.485,3.485 0 0 0 3.96,-1.09 L 19.818,6.153 22.956,7.33 20.106,17.068 5.82,19.882 A 3.354,3.354 0 0 1 4.328,19.828 Z M 1,15.957 l 1.6,1.6 c 0.013,0.013 0.033,0.014 0.047,0.025 l 0.466,1.633 C 3.043,19.16 2.964,19.121 2.898,19.061 L 1,17.316 Z M 22.114,5.131 22.498,6.091 20,5.154 V 4.25 Z"
         id="path132" /><path
         fill="none"
         d="M 0,0 H 24 V 24 H 0 Z"
         id="path134" /></g><path
       style="fill:#000000;stroke:#000000;stroke-width:3.48024;stroke-linejoin:round;stroke-miterlimit:11.2;stroke-opacity:1;paint-order:markers fill stroke"
       d="m 27.701474,491.59934 -13.417623,-12.31589 -0.0056,-8.73698 -0.0056,-8.73699 10.94484,10.80882 10.944839,10.80881 2.698902,9.43834 c 1.484397,5.19109 2.798875,9.80091 2.921062,10.24405 0.122188,0.44315 0.02296,0.80572 -0.220499,0.80572 -0.243461,0 -6.480588,-5.54215 -13.86028,-12.31588 z"
       id="path1312"
       transform="scale(0.26458333)" /><path
       style="fill:#000000;stroke:#000000;stroke-width:3.48024;stroke-linejoin:round;stroke-miterlimit:11.2;stroke-opacity:1;paint-order:markers fill stroke"
       d="M 287.63913,320.59542 271.64,314.57436 v -5.75195 c 0,-5.25968 0.069,-5.73205 0.80571,-5.51944 2.0162,0.58182 26.64819,11.05715 27.12736,11.53655 0.52238,0.52264 4.75581,10.71833 4.75581,11.4538 0,0.20091 -0.15539,0.35581 -0.34531,0.34423 -0.18991,-0.0116 -7.54491,-2.73054 -16.34444,-6.04213 z"
       id="path1314"
       transform="scale(0.26458333)" /><path
       style="fill:#000000;stroke:#000000;stroke-width:3.48024;stroke-linejoin:round;stroke-miterlimit:11.2;paint-order:markers fill stroke"
       d="M 15.754582,70.787541 C 15.347881,70.023454 13.460947,62.81509 13.6303,62.672476 c 0.100047,-0.08425 5.636522,-2.393678 12.303278,-5.132062 10.531295,-4.325752 12.279297,-5.185927 13.325234,-6.557221 1.148493,-1.505752 1.573335,-4.342277 0.976452,-6.519433 -0.107456,-0.391952 0.581777,-1.086531 1.711931,-1.725208 1.635205,-0.924093 2.093648,-0.998741 3.379907,-0.550349 2.059868,0.718074 6.81651,0.252335 9.014438,-0.882634 2.338731,-1.207677 4.315375,-3.314115 11.198979,-11.934346 l 5.590517,-7.000911 3.108648,1.184149 c 1.709762,0.651282 3.988941,1.490276 5.064843,1.864431 1.075906,0.374156 2.07248,0.868437 2.214607,1.098403 0.142128,0.229966 -1.97375,8.068063 -4.70195,17.417993 L 71.856821,60.93516 46.029964,66.034003 C 22.07967,70.762365 16.230045,71.680817 15.754582,70.787541 Z"
       id="path253"
       transform="translate(0.13866629,64.806087)" /></g></svg>
